<?xml version="1.0" encoding="UTF-8"?>
<svg xmlns="http://www.w3.org/2000/svg" viewBox="0 0 237.9 216.8">
  <defs>
    <style>
      .cls-1 {
        fill: #e6e6e6;
      }
    </style>
  </defs>
  <g id="_图层_1" data-name="图层 1">
    <polyline class="cls-1" points="237.9 191.8 237.9 107.8 153.9 107.8"/>
    <path class="cls-1" d="M194.9,107.8h32c0,60.1-48.9,109-109,109-51.44,0-91.25-38.36-103.99-76.25l30.33-10.2c9.1,27.06,37.32,54.44,73.65,54.44,42.46,0,77-34.54,77-77Z"/>
  </g>
  <g id="_图层_2" data-name="图层 2">
    <polyline class="cls-1" points="0 25 0 109 84 109"/>
    <path class="cls-1" d="M43,109H11C11,48.9,59.9,0,120,0c51.44,0,91.25,38.36,103.99,76.25l-30.33,10.2c-9.1-27.06-37.32-54.44-73.65-54.44-42.46,0-77,34.54-77,77Z"/>
  </g>
</svg>