<?xml version="1.0" encoding="UTF-8"?>
<svg id="_图层_1" data-name="图层 1" xmlns="http://www.w3.org/2000/svg" viewBox="0 0 228.28 234">
  <defs>
    <style>
      .cls-1 {
        fill: none;
        stroke-width: 22px;
      }

      .cls-1, .cls-2 {
        stroke: #e6e6e6;
        stroke-miterlimit: 10;
      }

      .cls-3, .cls-2 {
        fill: #e6e6e6;
      }

      .cls-2 {
        stroke-width: 8px;
      }
    </style>
  </defs>
  <path class="cls-1" d="M197.72,41.4l-23.72,167.43c-1.16,8.16-7.5,14.17-14.95,14.17h-45.64s.56,0,.56,0h-45.64c-7.45,0-13.8-6.01-14.95-14.17L29.64,41.4"/>
  <path class="cls-2" d="M131,22.58v-5.29c0-7.34-4.36-13.29-9.75-13.29h-14.04c-5.38,0-9.75,5.95-9.75,13.29v5.29h33.53Z"/>
  <rect class="cls-3" y="25.36" width="228.28" height="25.64" rx="10.08" ry="10.08"/>
  <path class="cls-3" d="M81.61,187.1l-10.39-115.85c-.6-6.73,2.53-12.5,7.01-12.9l6.82-.6c4.47-.4,8.59,4.74,9.19,11.46l10.39,115.85c.6,6.73-2.53,12.5-7.01,12.9l-6.82,.6c-4.47,.4-8.59-4.74-9.19-11.46Z"/>
  <path class="cls-3" d="M147.02,187.1l10.39-115.85c.6-6.73-2.53-12.5-7.01-12.9l-6.82-.6c-4.47-.4-8.59,4.74-9.19,11.46l-10.39,115.85c-.6,6.73,2.53,12.5,7.01,12.9l6.82,.6c4.47,.4,8.59-4.74,9.19-11.46Z"/>
</svg>